<?xml version="1.0" standalone="no"?>
<!DOCTYPE svg PUBLIC "-//W3C//DTD SVG 20010904//EN"
 "http://www.w3.org/TR/2001/REC-SVG-20010904/DTD/svg10.dtd">
<svg version="1.0" xmlns="http://www.w3.org/2000/svg"
 width="224.000000pt" height="224.000000pt" viewBox="0 0 224.000000 224.000000"
 preserveAspectRatio="xMidYMid meet">
<metadata>
Created by potrace 1.14, written by Peter Selinger 2001-2017
</metadata>
<g transform="translate(0.000000,224.000000) scale(0.100000,-0.100000)"
fill="#000000" stroke="none">
<path d="M0 1735 c0 -494 0 -506 19 -500 11 3 22 1 26 -5 3 -5 -2 -10 -13 -10
-11 0 -23 -7 -26 -16 -3 -9 -6 -283 -6 -610 l0 -594 1120 0 1120 0 0 695 0
696 -25 24 c-13 14 -31 25 -40 25 -8 0 -15 5 -15 10 0 12 27 13 32 1 2 -4 13
-12 26 -16 23 -7 23 -6 21 64 -1 39 -6 68 -10 65 -15 -9 -42 45 -35 71 5 20 3
25 -14 25 -23 0 -26 13 -6 29 11 10 16 8 21 -9 3 -11 11 -18 16 -15 13 9 11
-9 -2 -22 -7 -7 -9 -23 -5 -38 6 -22 9 -25 21 -15 13 10 15 64 15 331 l0 319
-289 0 c-222 0 -291 -3 -294 -12 -4 -10 -6 -10 -6 0 -1 8 -23 12 -75 12 -50 0
-76 -4 -79 -12 -4 -10 -6 -10 -6 0 -1 14 -31 17 -31 2 0 -5 -5 -10 -11 -10 -5
0 -8 4 -5 9 3 5 -19 8 -49 8 -38 -1 -55 -5 -55 -14 0 -7 -4 -13 -10 -13 -5 0
-10 6 -10 13 0 8 -19 13 -58 14 -31 1 -49 -1 -39 -4 9 -2 17 -14 17 -26 0 -16
-3 -18 -9 -9 -25 40 -40 41 -646 42 l-585 1 0 -506z m1110 485 c0 -13 -11 -13
-30 0 -12 8 -11 10 8 10 12 0 22 -4 22 -10z m-288 -14 c13 -10 15 -15 6 -24
-9 -9 -8 -12 4 -12 9 0 18 -7 20 -17 4 -22 72 -25 115 -6 19 9 41 12 55 7 19
-6 21 -5 11 8 -7 8 -10 18 -6 21 11 12 73 8 71 -4 -2 -6 3 -14 10 -16 8 -3 10
2 6 14 -4 14 -4 15 4 4 6 -8 15 -10 22 -6 8 5 11 3 8 -6 -3 -8 -10 -14 -16
-14 -5 0 -14 -3 -18 -7 -13 -13 -24 -9 -32 12 -7 20 -9 19 -35 -8 -25 -26 -26
-31 -14 -44 23 -23 5 -45 -25 -31 -34 17 -77 27 -58 14 10 -7 11 -11 3 -11 -7
0 -13 -5 -13 -12 0 -9 3 -9 12 0 24 24 44 14 45 -25 1 -26 -2 -32 -9 -22 -7
11 -9 8 -5 -8 3 -13 1 -23 -4 -23 -5 0 -9 8 -9 17 0 9 -3 13 -7 9 -5 -4 -8
-11 -8 -15 0 -3 -9 -19 -21 -33 -15 -20 -28 -26 -45 -22 -15 3 -19 2 -9 -3 8
-5 15 -15 16 -23 1 -22 -33 -23 -40 -2 -3 9 -12 34 -19 55 -15 39 -6 51 15 18
9 -15 15 -17 25 -9 8 6 16 8 20 4 3 -3 1 -6 -6 -6 -7 0 -9 -4 -6 -10 10 -16
35 -12 35 5 0 9 -12 18 -30 22 -21 4 -30 11 -30 24 0 12 -7 19 -19 19 -11 0
-25 2 -33 5 -7 3 -27 -7 -43 -22 -34 -32 -42 -65 -16 -62 33 3 41 -2 38 -23
-2 -23 4 -25 34 -13 11 4 18 0 22 -15 4 -17 3 -19 -9 -9 -11 9 -20 8 -40 -6
-14 -9 -28 -14 -32 -11 -3 3 0 6 6 6 7 0 12 6 12 14 0 27 -21 28 -46 3 l-25
-25 28 -22 c17 -13 21 -19 10 -16 -11 3 -16 2 -12 -4 3 -6 2 -10 -3 -10 -6 0
-13 7 -16 16 -3 9 -13 14 -20 11 -16 -6 -106 57 -106 75 0 6 11 8 25 6 14 -3
25 -1 25 6 0 6 8 2 16 -9 16 -20 16 -20 10 2 -4 12 -2 24 4 28 17 11 11 35 -9
35 -12 0 -21 -9 -24 -22 -5 -21 -5 -21 -4 1 2 19 10 27 35 33 17 5 32 13 32
19 0 6 8 8 18 5 12 -4 26 1 37 14 10 11 22 17 27 13 6 -3 14 0 18 8 7 10 11
10 24 0 9 -8 16 -10 16 -5 -1 15 -24 39 -39 39 -8 0 -16 6 -19 14 -3 10 0 12
12 8 11 -5 16 -1 16 13 0 24 -9 25 -36 5 -24 -18 -41 -19 -41 -1 0 8 5 12 12
10 16 -6 57 36 51 52 -7 17 4 17 26 0z m546 -31 c-2 -10 -7 -12 -17 -5 -13 7
-13 11 -1 25 15 18 24 8 18 -20z m297 25 c3 -5 1 -10 -4 -10 -6 0 -11 5 -11
10 0 6 2 10 4 10 3 0 8 -4 11 -10z m-700 -10 c-3 -5 -10 -10 -16 -10 -5 0 -9
5 -9 10 0 6 7 10 16 10 8 0 12 -4 9 -10z m39 -5 c-4 -8 -10 -15 -15 -15 -4 0
-6 7 -3 15 4 8 10 15 15 15 4 0 6 -7 3 -15z m196 5 c0 -5 -2 -10 -4 -10 -3 0
-8 5 -11 10 -3 6 -1 10 4 10 6 0 11 -4 11 -10z m100 -9 c0 -23 -22 -40 -28
-23 -2 7 -14 10 -30 6 l-27 -6 30 21 c38 26 55 27 55 2z m180 15 c0 -3 -4 -8
-10 -11 -5 -3 -10 -1 -10 4 0 6 5 11 10 11 6 0 10 -2 10 -4z m53 -2 c10 -10
-12 -44 -28 -44 -8 0 -15 5 -15 11 0 6 7 8 16 5 13 -5 15 -2 11 14 -5 19 3 27
16 14z m-866 -30 c-3 -3 -12 -4 -19 -1 -8 3 -5 6 6 6 11 1 17 -2 13 -5z m43
-4 c0 -5 -7 -10 -16 -10 -8 0 -12 5 -9 10 3 6 10 10 16 10 5 0 9 -4 9 -10z
m250 1 c0 -5 -13 -11 -30 -13 -32 -5 -42 7 -12 15 29 8 42 7 42 -2z m220 -21
c0 -5 -4 -10 -10 -10 -5 0 -10 5 -10 10 0 6 5 10 10 10 6 0 10 -4 10 -10z
m230 -5 c-7 -8 -17 -12 -22 -9 -6 4 -5 10 3 15 22 14 33 10 19 -6z m-746 -10
c-4 -8 -12 -15 -20 -15 -17 0 -18 17 -1 23 22 9 27 7 21 -8z m849 8 c-7 -2
-19 -2 -25 0 -7 3 -2 5 12 5 14 0 19 -2 13 -5z m-443 -13 c0 -5 -4 -10 -10
-10 -5 0 -10 5 -10 10 0 6 5 10 10 10 6 0 10 -4 10 -10z m-540 -30 c0 -5 -4
-10 -10 -10 -5 0 -10 5 -10 10 0 6 5 10 10 10 6 0 10 -4 10 -10z m260 0 c0 -5
-7 -10 -16 -10 -8 0 -12 5 -9 10 3 6 10 10 16 10 5 0 9 -4 9 -10z m810 0 c0
-5 -9 -10 -20 -10 -11 0 -20 -4 -20 -9 0 -5 -7 -11 -15 -15 -26 -10 -16 13 13
28 32 18 42 19 42 6z m-252 -7 c-10 -2 -18 -14 -18 -25 0 -26 -13 -15 -15 12
-1 15 4 20 24 19 17 -1 20 -3 9 -6z m-733 -12 c-3 -5 -1 -12 5 -16 17 -10 11
-25 -10 -25 -20 0 -28 28 -13 43 10 10 25 8 18 -2z m450 -21 c3 -5 -1 -10 -9
-10 -9 0 -16 5 -16 10 0 6 4 10 9 10 6 0 13 -4 16 -10z m-259 -39 c-4 -5 -1
-11 5 -13 5 -2 7 -11 3 -21 -5 -14 -9 -15 -20 -6 -8 6 -11 15 -8 20 3 5 0 9
-5 9 -6 0 -11 -4 -11 -10 0 -5 -4 -10 -10 -10 -18 0 -10 17 13 28 28 13 40 15
33 3z m748 -10 c3 -5 -1 -14 -9 -21 -13 -10 -15 -9 -15 9 0 21 14 28 24 12z
m-314 -52 c0 -6 -4 -7 -10 -4 -5 3 -10 11 -10 16 0 6 5 7 10 4 6 -3 10 -11 10
-16z m380 17 c0 -2 -7 -7 -16 -10 -8 -3 -12 -2 -9 4 6 10 25 14 25 6z m-589
-33 c-11 -20 -66 -73 -75 -73 -17 0 -2 28 24 45 16 11 30 26 30 33 0 6 7 12
15 12 12 0 13 -4 6 -17z m57 -5 c-2 -6 -10 -14 -16 -16 -7 -2 -10 2 -6 12 7
18 28 22 22 4z m98 -3 c-23 -17 -36 -19 -36 -6 0 11 18 19 40 20 11 0 10 -3
-4 -14z m319 5 c3 -5 2 -10 -4 -10 -5 0 -13 5 -16 10 -3 6 -2 10 4 10 5 0 13
-4 16 -10z m-995 -10 c0 -5 -9 -10 -20 -10 -11 0 -20 5 -20 10 0 6 9 10 20 10
11 0 20 -4 20 -10z m930 0 c0 -5 -5 -10 -11 -10 -5 0 -7 5 -4 10 3 6 8 10 11
10 2 0 4 -4 4 -10z m148 -18 c4 -23 -4 -27 -27 -13 -17 11 -7 45 12 39 6 -3
13 -14 15 -26z m-378 8 c0 -5 -4 -10 -10 -10 -5 0 -10 5 -10 10 0 6 5 10 10
10 6 0 10 -4 10 -10z m-618 -32 c24 -12 47 -28 51 -35 4 -7 16 -13 27 -13 10
0 25 -6 32 -12 7 -7 25 -19 39 -27 18 -9 27 -21 27 -37 0 -31 -22 -26 -26 6
-3 18 -6 20 -12 9 -7 -11 -21 -5 -69 29 -33 23 -67 42 -76 42 -8 0 -15 5 -15
10 0 6 -6 10 -12 10 -7 0 -20 5 -28 10 -13 9 -13 11 0 20 19 12 13 14 62 -12z
m228 -3 c0 -9 7 -18 15 -21 8 -4 12 -10 9 -15 -3 -5 -14 1 -24 13 -13 15 -19
18 -20 9 0 -8 -2 -12 -5 -9 -8 7 5 38 16 38 5 0 9 -7 9 -15z m746 -17 c4 -6 1
-16 -7 -22 -8 -6 -23 -28 -34 -49 -35 -67 -213 -223 -232 -203 -3 2 12 23 33
45 22 22 50 55 64 72 14 17 35 42 48 56 12 13 22 26 22 29 0 3 14 23 32 45 31
39 60 50 74 27z m-1206 -18 c0 -5 -4 -10 -10 -10 -5 0 -10 5 -10 10 0 6 5 10
10 10 6 0 10 -4 10 -10z m212 -24 c4 3 9 1 13 -5 3 -6 0 -11 -7 -11 -19 1 -49
26 -41 34 4 4 13 0 19 -8 6 -9 13 -13 16 -10z m-172 -17 c0 -20 -15 -26 -25
-9 -9 15 3 43 15 35 5 -3 10 -15 10 -26z m375 21 c3 -6 -1 -7 -9 -4 -18 7 -21
14 -7 14 6 0 13 -4 16 -10z m175 -9 c0 -5 -5 -11 -12 -13 -13 -5 -4 -38 11
-38 6 0 8 6 5 14 -3 8 -2 16 3 19 5 3 10 -5 11 -18 1 -13 -5 -26 -13 -29 -8
-3 -15 -1 -15 4 0 17 -29 11 -49 -9 -19 -19 -20 -19 -38 2 -10 11 -13 18 -7
14 6 -3 24 -2 40 3 16 4 21 9 12 9 -26 1 -22 14 10 33 32 19 42 21 42 9z m470
-11 c0 -5 -5 -10 -11 -10 -5 0 -7 5 -4 10 3 6 8 10 11 10 2 0 4 -4 4 -10z
m161 -3 c-1 -12 -15 -9 -19 4 -3 6 1 10 8 8 6 -3 11 -8 11 -12z m497 1 c-5
-16 -48 -24 -48 -9 0 8 17 16 43 20 5 0 7 -5 5 -11z m-1053 -19 c-4 -5 -13 -9
-22 -9 -13 0 -13 3 -3 15 13 15 35 11 25 -6z m75 11 c0 -5 -2 -10 -4 -10 -3 0
-8 5 -11 10 -3 6 -1 10 4 10 6 0 11 -4 11 -10z m-608 -22 c-7 -7 -12 -8 -12
-2 0 14 12 26 19 19 2 -3 -1 -11 -7 -17z m138 6 c0 -9 -5 -14 -12 -12 -18 6
-21 28 -4 28 9 0 16 -7 16 -16z m-166 -18 c15 -13 26 -28 26 -35 0 -6 7 -11
15 -11 8 0 15 -5 15 -10 0 -6 12 -20 26 -33 14 -12 35 -40 46 -62 11 -22 27
-44 34 -48 8 -4 14 -13 14 -20 0 -7 8 -17 18 -24 30 -18 93 -111 79 -116 -9
-3 -9 -7 1 -19 7 -9 9 -23 6 -33 -7 -17 -8 -17 -21 1 -16 22 -16 17 -2 -23 8
-24 15 -30 30 -26 28 8 25 -25 -3 -36 -19 -7 -25 -4 -36 15 -7 14 -10 29 -7
34 3 6 0 22 -8 37 -8 16 -23 47 -32 71 -19 44 -29 52 -38 28 -10 -26 -67 -1
-67 29 1 6 5 2 11 -7 5 -10 15 -18 21 -18 7 0 6 5 -2 15 -6 8 -10 22 -8 32 2
13 8 9 20 -17 11 -21 18 -28 18 -17 0 24 -39 85 -127 195 -44 55 -72 99 -69
108 7 19 11 18 40 -10z m617 2 c11 -21 11 -22 -5 -8 -16 13 -20 12 -32 -5 -8
-10 -17 -16 -20 -12 -6 6 32 47 42 47 2 0 9 -10 15 -22z m256 -10 c1 -26 -1
-29 -7 -13 -6 17 -3 45 5 45 1 0 2 -15 2 -32z m-1017 18 c0 -3 -4 -8 -10 -11
-5 -3 -10 -1 -10 4 0 6 5 11 10 11 6 0 10 -2 10 -4z m906 -23 c-10 -10 -19 5
-10 18 6 11 8 11 12 0 2 -7 1 -15 -2 -18z m336 12 c0 -5 -5 -11 -11 -13 -6 -2
-11 4 -11 13 0 9 5 15 11 13 6 -2 11 -8 11 -13z m-1032 -10 c0 -8 -4 -15 -10
-15 -5 0 -10 7 -10 15 0 8 5 15 10 15 6 0 10 -7 10 -15z m140 1 c0 -8 7 -13
16 -12 9 0 19 -5 21 -11 3 -7 -3 -13 -12 -13 -22 0 -66 30 -59 41 8 14 34 10
34 -5z m148 -19 c10 -11 9 -17 -2 -26 -10 -9 -17 -7 -27 6 -11 13 -12 17 -1
21 10 3 8 8 -5 19 -17 13 -17 13 3 4 11 -5 26 -16 32 -24z m1218 7 c-3 -9 -6
-20 -6 -25 0 -5 -5 -9 -11 -9 -6 0 -9 7 -5 15 3 8 1 15 -5 15 -6 0 -7 5 -4 10
10 17 38 12 31 -6z m-1709 -10 c-3 -3 -12 -4 -19 -1 -8 3 -5 6 6 6 11 1 17 -2
13 -5z m278 -28 c25 -22 36 -39 32 -50 -8 -21 -31 -11 -47 20 -7 13 -19 24
-26 24 -16 0 -27 17 -19 30 10 16 19 12 60 -24z m375 10 c-5 -13 -7 -26 -4
-28 2 -3 -5 -4 -16 -3 -29 2 -37 15 -13 21 13 4 20 11 16 20 -3 8 1 14 11 14
12 0 14 -5 6 -24z m570 14 c0 -5 -7 -10 -15 -10 -8 0 -15 5 -15 10 0 6 7 10
15 10 8 0 15 -4 15 -10z m623 -7 c-3 -7 -6 -13 -8 -13 -2 0 -5 6 -8 13 -3 8 1
14 8 14 7 0 11 -6 8 -14z m-1764 -17 c13 -14 29 -22 36 -20 7 3 15 -2 18 -10
4 -10 1 -13 -7 -10 -18 7 -49 -37 -36 -50 15 -15 12 -36 -5 -36 -8 0 -15 -4
-15 -10 0 -14 5 -13 39 8 26 16 28 19 15 37 -19 25 -18 31 5 31 12 0 17 -5 13
-14 -4 -10 0 -13 15 -8 17 5 19 2 19 -28 -1 -29 -4 -35 -21 -32 -11 2 -14 1
-7 -1 6 -3 12 -9 12 -14 0 -15 -30 -23 -43 -10 -6 6 -19 11 -29 11 -36 0 -76
52 -47 62 7 2 5 9 -5 17 -14 12 -16 11 -17 -5 -1 -11 -1 -23 0 -27 3 -15 -22
-2 -33 17 -9 13 -7 20 7 30 9 7 17 18 17 24 0 5 8 9 18 7 9 -2 17 -4 17 -6 0
-1 10 -3 23 -4 24 -2 29 9 10 22 -20 12 -42 43 -31 43 5 0 20 -11 32 -24z
m831 9 c0 -8 -2 -15 -4 -15 -2 0 -6 7 -10 15 -3 8 -1 15 4 15 6 0 10 -7 10
-15z m-483 -21 c5 -15 -20 -24 -37 -14 -7 4 -9 13 -5 19 8 14 37 11 42 -5z
m763 -5 c0 -5 -9 -9 -20 -9 -22 0 -27 16 -7 23 15 5 27 -1 27 -14z m-670 1 c8
-5 11 -10 5 -10 -5 -1 4 -7 20 -15 19 -8 24 -14 13 -14 -9 -1 -29 10 -44 24
-27 25 -23 34 6 15z m194 -3 c4 4 4 0 1 -10 -6 -13 -11 -14 -26 -6 -11 5 -17
14 -13 20 4 7 10 6 18 0 7 -6 16 -8 20 -4z m101 -7 c3 -5 -1 -10 -9 -10 -9 0
-16 5 -16 10 0 6 4 10 9 10 6 0 13 -4 16 -10z m865 -9 c0 -11 -4 -23 -10 -26
-6 -4 -10 5 -10 19 0 14 5 26 10 26 6 0 10 -9 10 -19z m-925 -1 c3 -5 1 -10
-4 -10 -6 0 -11 5 -11 10 0 6 2 10 4 10 3 0 8 -4 11 -10z m722 -15 c-4 -8 -14
-15 -23 -15 -16 0 -16 2 2 19 21 21 29 19 21 -4z m-997 -3 c21 -17 21 -42 1
-42 -16 0 -61 42 -56 51 9 14 31 11 55 -9z m680 9 c0 -6 -4 -12 -9 -15 -13 -8
-42 4 -35 15 7 12 44 12 44 0z m-251 -37 c-15 -19 -28 -9 -22 16 4 16 8 18 19
9 11 -9 11 -15 3 -25z m-560 13 c6 -8 8 -17 4 -20 -3 -4 3 -7 14 -7 11 0 28
-9 38 -20 18 -19 18 -22 2 -38 -21 -20 -50 -7 -55 27 -2 11 -10 21 -17 21 -18
0 -26 15 -19 34 7 20 18 20 33 3z m356 3 c3 -5 1 -10 -4 -10 -6 0 -11 5 -11
10 0 6 2 10 4 10 3 0 8 -4 11 -10z m40 1 c-3 -5 5 -11 17 -14 20 -3 21 -4 6
-11 -10 -5 -25 -5 -34 -2 -13 5 -14 9 -4 21 14 16 25 20 15 6z m-1024 -34 c-8
-8 -11 -7 -11 4 0 20 13 34 18 19 3 -7 -1 -17 -7 -23z m1398 7 c-6 -8 -28 -14
-48 -14 l-36 0 28 19 c33 21 75 18 56 -5z m-502 2 c-3 -8 1 -17 10 -20 9 -4
13 -9 10 -13 -11 -10 -36 17 -30 33 3 8 7 14 10 14 3 0 3 -6 0 -14z m213 -6
c0 -23 -10 -26 -28 -8 -18 18 -15 28 8 28 13 0 20 -7 20 -20z m840 10 c0 -5
-8 -10 -17 -10 -15 0 -16 2 -3 10 19 12 20 12 20 0z m-1130 -20 c0 -5 -4 -10
-9 -10 -6 0 -13 5 -16 10 -3 6 1 10 9 10 9 0 16 -4 16 -10z m683 4 c9 -9 -34
-64 -50 -64 -7 0 -13 -6 -13 -12 0 -9 -3 -8 -10 2 -7 11 -1 23 23 47 33 34 40
37 50 27z m-1253 -8 c0 -3 -4 -8 -10 -11 -5 -3 -10 -1 -10 4 0 6 5 11 10 11 6
0 10 -2 10 -4z m250 -16 c0 -5 -7 -10 -15 -10 -8 0 -15 5 -15 10 0 6 7 10 15
10 8 0 15 -4 15 -10z m355 -12 c32 -14 32 -26 0 -34 -25 -6 -65 17 -65 38 0
12 35 10 65 -4z m230 -8 c-3 -5 -15 -10 -26 -10 -11 0 -17 5 -14 10 3 6 15 10
26 10 11 0 17 -4 14 -10z m230 0 c-3 -5 -12 -10 -20 -10 -8 0 -17 5 -20 10 -4
6 5 10 20 10 15 0 24 -4 20 -10z m-803 -25 c-7 -36 -15 -35 -27 3 -6 20 -4 23
12 20 12 -2 17 -11 15 -23z m608 8 c0 -16 -16 -31 -54 -51 -44 -24 -79 -17
-84 17 -3 20 0 22 30 16 20 -3 43 0 58 9 28 16 50 20 50 9z m-400 -25 c0 19
28 14 51 -9 20 -20 20 -22 3 -40 -23 -26 -38 -24 -54 6 -7 14 -20 25 -28 25
-12 0 -12 3 -2 15 11 13 15 13 21 3 7 -10 9 -10 9 0z m690 -32 c-12 -12 -30 2
-23 19 4 11 0 14 -13 9 -15 -5 -16 -4 -4 5 10 7 19 5 31 -7 9 -9 13 -21 9 -26z
m-493 28 c-3 -3 -12 -4 -19 -1 -8 3 -5 6 6 6 11 1 17 -2 13 -5z m1103 -14 c0
-5 -4 -10 -10 -10 -5 0 -10 5 -10 10 0 6 5 10 10 10 6 0 10 -4 10 -10z m-1795
-20 c3 -5 1 -10 -4 -10 -6 0 -11 5 -11 10 0 6 2 10 4 10 3 0 8 -4 11 -10z
m255 -22 c0 -5 -7 -8 -15 -8 -17 0 -18 2 -9 25 5 13 8 14 15 3 5 -7 9 -16 9
-20z m619 13 c-13 -11 -26 -17 -28 -15 -5 5 30 33 43 34 4 0 -2 -9 -15 -19z
m-664 -23 c-1 -13 -3 -31 -4 -40 -1 -22 -27 -24 -35 -3 -3 8 -1 15 4 15 6 0
10 6 10 13 0 10 18 37 26 37 1 0 0 -10 -1 -22z m-199 -14 c-4 -9 -9 -15 -11
-12 -3 3 -3 13 1 22 4 9 9 15 11 12 3 -3 3 -13 -1 -22z m749 16 c4 -6 11 -8
16 -5 5 4 9 1 9 -4 0 -16 -26 -13 -40 4 -8 9 -9 15 -2 15 6 0 14 -5 17 -10z
m-185 -15 c0 -8 -4 -15 -10 -15 -5 0 -7 7 -4 15 4 8 8 15 10 15 2 0 4 -7 4
-15z m1235 -5 c-3 -5 -10 -10 -16 -10 -5 0 -9 5 -9 10 0 6 7 10 16 10 8 0 12
-4 9 -10z m-165 -10 c0 -5 -5 -10 -11 -10 -5 0 -7 5 -4 10 3 6 8 10 11 10 2 0
4 -4 4 -10z m-632 -9 c12 -7 12 -12 1 -30 -25 -38 -50 -21 -33 23 7 18 13 19
32 7z m862 5 c0 -3 -4 -8 -10 -11 -5 -3 -10 -1 -10 4 0 6 5 11 10 11 6 0 10
-2 10 -4z m-1000 -11 c0 -17 -59 -55 -87 -55 -45 0 -41 14 10 38 39 20 77 28
77 17z m250 -16 c0 -5 -6 -9 -13 -9 -9 0 -12 -10 -9 -30 4 -28 2 -30 -27 -30
-35 0 -38 8 -16 50 18 35 65 49 65 19z m-1143 -11 c-3 -8 -6 -5 -6 6 -1 11 2
17 5 13 3 -3 4 -12 1 -19z m1503 -13 c-7 -8 -17 -12 -23 -8 -6 4 -3 11 8 19
23 17 32 10 15 -11z m-558 -30 c3 -39 -8 -56 -30 -48 -37 14 -41 44 -11 74 24
24 37 16 41 -26z m-356 13 c14 -22 -8 -59 -46 -78 -45 -23 -79 -27 -37 -4 22
12 27 21 27 53 0 21 3 40 6 43 7 8 43 -2 50 -14z m64 13 c0 -17 -12 -41 -21
-41 -5 0 -9 11 -9 25 0 16 6 25 15 25 8 0 15 -4 15 -9z m958 -17 c-9 -9 -21
-13 -28 -9 -9 6 -6 12 11 21 29 15 38 9 17 -12z m137 16 c-3 -5 -10 -10 -16
-10 -5 0 -9 5 -9 10 0 6 7 10 16 10 8 0 12 -4 9 -10z m-50 -20 c3 -5 1 -10 -4
-10 -6 0 -11 5 -11 10 0 6 2 10 4 10 3 0 8 -4 11 -10z m105 -12 c0 -19 -2 -20
-10 -8 -13 19 -13 30 0 30 6 0 10 -10 10 -22z m-1290 2 c0 -5 -2 -10 -4 -10
-3 0 -8 5 -11 10 -3 6 -1 10 4 10 6 0 11 -4 11 -10z m1025 0 c3 -5 1 -10 -4
-10 -6 0 -11 5 -11 10 0 6 2 10 4 10 3 0 8 -4 11 -10z m-800 -14 l27 -14 -24
-16 c-13 -9 -39 -19 -58 -22 -36 -8 -36 0 3 44 24 26 19 25 52 8z m770 -15
c-6 -4 -22 -11 -37 -15 -21 -5 -28 -3 -28 9 0 11 11 15 37 15 22 0 33 -4 28
-9z m65 -17 c0 -2 -9 -4 -21 -4 -11 0 -18 4 -14 10 5 8 35 3 35 -6z m-1150 2
c0 -3 -4 -8 -10 -11 -5 -3 -10 -1 -10 4 0 6 5 11 10 11 6 0 10 -2 10 -4z m180
-26 c-11 -20 -50 -28 -50 -10 0 11 29 29 48 30 10 0 10 -5 2 -20z m715 -9 l40
-19 -56 -1 c-60 -1 -71 3 -62 25 7 19 30 17 78 -5z m320 -2 c-7 -10 -35 -1
-35 11 0 5 9 6 20 3 11 -3 17 -9 15 -14z m-722 1 c23 0 22 -15 -3 -40 -21 -21
-46 -25 -68 -11 -22 14 6 64 32 57 12 -3 29 -6 39 -6z m-171 -30 c-5 -37 -34
-47 -69 -25 l-26 17 39 18 c55 26 61 24 56 -10z m273 -25 c0 -25 -44 -40 -52
-18 -4 10 1 21 12 30 24 17 40 12 40 -12z m442 9 c-3 -3 -12 -4 -19 -1 -8 3
-5 6 6 6 11 1 17 -2 13 -5z m-333 -19 c-6 -16 -24 -21 -24 -7 0 11 11 22 21
22 5 0 6 -7 3 -15z m210 -21 c18 -18 19 -24 7 -42 -7 -11 -21 -12 -76 -3 -79
12 -98 24 -69 46 26 20 118 20 138 -1z m-958 -9 c-18 -18 -22 -19 -29 -2 -3 8
4 14 20 15 22 2 23 0 9 -13z m23 -41 c-34 -36 -45 -29 -12 9 15 18 30 29 32
24 2 -4 -7 -19 -20 -33z m251 27 c0 -15 -25 -31 -47 -31 -24 0 -30 19 -12 37
10 10 59 6 59 -6z m794 13 c9 -3 16 -17 16 -30 0 -19 -5 -24 -24 -24 -40 0
-56 11 -56 36 0 19 5 24 24 24 13 0 31 -3 40 -6z m-551 -23 c9 -9 9 -14 -3
-21 -21 -14 -35 -7 -36 17 -1 23 18 25 39 4z m178 -1 c10 -6 19 -16 18 -23 -1
-31 -120 -94 -154 -81 -24 10 -15 48 12 52 13 2 31 14 40 26 28 34 53 42 84
26z m447 -19 c3 -16 -1 -22 -10 -19 -7 3 -15 15 -16 27 -3 16 1 22 10 19 7 -3
15 -15 16 -27z m-798 10 c0 -6 -4 -13 -10 -16 -5 -3 -10 1 -10 9 0 9 5 16 10
16 6 0 10 -4 10 -9z m845 -19 c0 -18 -20 -15 -23 4 -3 10 1 15 10 12 7 -3 13
-10 13 -16z m-1047 -14 c-5 -15 -23 -11 -26 6 -2 11 2 14 13 10 9 -4 14 -11
13 -16z m1092 7 c0 -8 -4 -15 -10 -15 -5 0 -10 7 -10 15 0 8 5 15 10 15 6 0
10 -7 10 -15z m50 -11 c0 -16 -16 -19 -25 -4 -8 13 4 32 16 25 5 -4 9 -13 9
-21z m54 -15 c-3 -5 -10 -7 -15 -3 -5 3 -7 10 -3 15 3 5 10 7 15 3 5 -3 7 -10
3 -15z m-1249 -11 c13 -39 -58 -76 -84 -44 -9 11 -5 19 21 40 40 32 55 33 63
4z m200 1 c14 -21 -24 -45 -75 -48 -56 -2 -67 15 -27 42 25 18 93 22 102 6z
m605 -4 c47 -8 102 -17 123 -19 21 -3 42 -8 47 -11 5 -3 19 -1 30 5 16 9 25 8
36 -1 11 -9 17 -9 29 1 12 10 16 9 21 -5 5 -12 9 -13 14 -5 5 9 17 9 46 1 21
-6 48 -8 60 -5 12 3 25 0 29 -6 5 -8 12 -7 25 5 17 16 19 15 35 -9 24 -36 13
-56 -32 -58 -21 -1 -51 -2 -68 -3 -16 -1 -32 -3 -35 -4 -3 -1 -34 -4 -69 -6
-48 -3 -61 -1 -52 8 15 15 14 42 -4 57 -12 10 -15 10 -15 -3 0 -9 -12 -16 -29
-19 -23 -3 -27 -1 -23 14 3 12 -1 18 -11 18 -8 0 -17 3 -20 8 -5 9 3 -17 11
-38 4 -11 0 -9 -13 3 -16 17 -19 17 -27 3 -5 -9 -6 -21 -3 -26 7 -11 -6 -13
-29 -4 -13 5 -13 10 -4 27 11 22 11 22 -10 3 -12 -10 -19 -22 -17 -26 3 -5 -4
-6 -14 -3 -12 3 -17 11 -14 19 3 8 -1 14 -11 14 -12 0 -15 -6 -10 -24 3 -14 1
-33 -5 -43 -6 -10 -11 -12 -11 -5 0 17 -29 15 -37 -4 -3 -8 -12 -13 -19 -10
-17 7 -28 -11 -12 -18 7 -2 -8 -4 -35 -2 -43 2 -47 0 -41 -17 6 -19 5 -19 -16
1 -12 11 -19 25 -16 30 3 5 -6 17 -20 27 -20 13 -25 23 -22 48 2 26 8 33 30
35 35 4 67 -13 78 -44 10 -26 30 -33 30 -10 0 17 25 27 46 19 12 -4 15 -2 12
8 -3 8 -11 13 -17 11 -34 -7 -68 47 -44 71 8 9 4 9 103 -8z m-155 -4 c7 -12
-12 -24 -25 -16 -11 7 -4 25 10 25 5 0 11 -4 15 -9z m-400 -21 c3 -5 -1 -10
-10 -10 -9 0 -13 5 -10 10 3 6 8 10 10 10 2 0 7 -4 10 -10z m145 0 c0 -5 -7
-10 -16 -10 -8 0 -12 5 -9 10 3 6 10 10 16 10 5 0 9 -4 9 -10z m1055 -16 c0
-10 -7 -19 -15 -20 -25 -1 -31 6 -19 27 13 24 34 20 34 -7z m-70 5 c8 -13 -34
-61 -47 -53 -11 7 0 46 16 56 15 11 24 10 31 -3z m-1497 -56 c-4 -32 -38 -46
-38 -16 0 20 18 43 33 43 4 0 7 -12 5 -27z m42 18 c0 -6 -4 -13 -10 -16 -5 -3
-10 1 -10 9 0 9 5 16 10 16 6 0 10 -4 10 -9z m130 -47 c0 -7 -9 -15 -19 -19
-20 -6 -33 -27 -37 -59 -1 -16 4 -14 28 13 21 23 34 30 48 26 15 -5 18 -3 14
10 -7 18 31 65 52 65 9 0 5 -17 -13 -56 -14 -30 -23 -57 -20 -60 2 -3 12 11
21 30 9 19 20 38 25 40 9 6 25 -79 17 -92 -2 -4 2 -41 10 -81 7 -41 11 -77 9
-82 -3 -4 2 -14 10 -22 22 -23 18 -33 -5 -12 -11 10 -20 27 -20 37 0 10 -7 21
-15 24 -8 4 -13 10 -10 14 3 5 -1 14 -8 22 -7 7 -16 21 -20 31 -3 9 -12 17
-18 17 -8 0 -8 -4 1 -15 7 -8 8 -15 2 -15 -5 0 -15 7 -22 15 -7 8 -16 13 -20
10 -5 -3 -13 9 -19 25 -5 17 -16 30 -24 30 -18 0 -104 48 -113 62 -4 6 -2 8 4
4 6 -3 17 3 25 14 21 30 89 61 105 48 6 -6 12 -16 12 -24z m218 24 c7 -7 12
-40 12 -79 0 -63 -1 -67 -25 -72 -33 -6 -45 16 -45 78 0 72 26 105 58 73z
m143 -15 c16 -43 7 -86 -21 -100 -14 -7 -28 -9 -32 -5 -4 4 -10 35 -14 70 l-7
62 32 0 c25 0 34 -6 42 -27z m-581 -29 c0 -16 -16 -19 -25 -4 -8 13 4 32 16
25 5 -4 9 -13 9 -21z m715 -30 c0 -16 4 -35 8 -41 6 -9 3 -11 -7 -7 -18 7 -21
-7 -5 -23 7 -7 3 -12 -15 -15 -14 -3 -26 -2 -26 3 0 4 -3 14 -6 22 -3 9 3 16
15 20 12 3 21 11 21 17 0 10 -3 10 -15 0 -8 -7 -15 -9 -16 -4 0 5 -3 20 -5 34
-2 13 -2 31 1 38 9 25 49 -10 50 -44z m450 38 c-3 -3 -11 0 -18 7 -9 10 -8 11
6 5 10 -3 15 -9 12 -12z m-1205 -28 c0 -8 -4 -12 -10 -9 -5 3 -10 10 -10 16 0
5 5 9 10 9 6 0 10 -7 10 -16z m798 -30 c4 2 8 -8 9 -22 l1 -27 -14 25 c-7 14
-13 32 -12 40 0 10 2 10 5 -3 2 -9 8 -15 11 -13z m-828 1 c0 -8 -2 -15 -4 -15
-2 0 -6 7 -10 15 -3 8 -1 15 4 15 6 0 10 -7 10 -15z m1286 -22 c-10 -10 -19 5
-10 18 6 11 8 11 12 0 2 -7 1 -15 -2 -18z m190 2 c1 -8 -4 -15 -11 -15 -8 0
-11 7 -8 20 6 22 15 19 19 -5z m264 -6 c0 -14 -17 -10 -23 5 -4 10 -1 13 9 9
7 -3 14 -9 14 -14z m-1815 -9 c3 -5 2 -10 -4 -10 -5 0 -13 5 -16 10 -3 6 -2
10 4 10 5 0 13 -4 16 -10z m1502 -7 c-9 -2 -15 -9 -12 -14 3 -5 -1 -6 -10 -2
-13 5 -14 7 -3 14 7 5 20 8 28 8 11 -1 10 -3 -3 -6z m-1372 -13 c3 -5 1 -10
-4 -10 -6 0 -11 5 -11 10 0 6 2 10 4 10 3 0 8 -4 11 -10z m170 -10 c3 -5 1
-10 -4 -10 -6 0 -11 5 -11 10 0 6 2 10 4 10 3 0 8 -4 11 -10z m-220 -20 c3 -5
1 -10 -4 -10 -6 0 -11 5 -11 10 0 6 2 10 4 10 3 0 8 -4 11 -10z m75 0 c0 -5
-2 -10 -4 -10 -3 0 -8 5 -11 10 -3 6 -1 10 4 10 6 0 11 -4 11 -10z m554 -10
c31 -11 36 -54 8 -69 -23 -12 -47 2 -39 23 4 9 2 16 -2 16 -5 0 -7 9 -4 20 6
23 4 23 37 10z m-106 -43 c3 -37 2 -38 -25 -35 -20 2 -29 9 -31 26 -5 36 5 54
30 50 19 -2 24 -10 26 -41z m-207 -50 c-10 -9 -11 -8 -5 6 3 10 9 15 12 12 3
-3 0 -11 -7 -18z m209 -63 c0 -26 -4 -43 -10 -39 -5 3 -7 12 -4 20 3 8 -2 22
-11 32 -17 16 -16 17 1 24 11 4 20 8 22 8 1 1 2 -20 2 -45z m110 31 c0 -8 -7
-15 -15 -15 -13 0 -14 3 -3 15 16 18 18 18 18 0z m287 -67 c-3 -8 -6 -5 -6 6
-1 11 2 17 5 13 3 -3 4 -12 1 -19z"/>
<path d="M877 2113 c-4 -3 -7 -16 -7 -27 0 -12 3 -16 8 -10 4 6 13 13 21 15
11 4 11 7 -1 17 -8 6 -18 9 -21 5z"/>
<path d="M920 2020 c0 -5 5 -10 11 -10 5 0 7 5 4 10 -3 6 -8 10 -11 10 -2 0
-4 -4 -4 -10z"/>
<path d="M380 1630 c0 -5 7 -10 15 -10 8 0 15 5 15 10 0 6 -7 10 -15 10 -8 0
-15 -4 -15 -10z"/>
<path d="M1813 958 c-2 -18 0 -20 7 -8 12 18 13 30 2 30 -4 0 -9 -10 -9 -22z"/>
<path d="M1420 909 c0 -5 5 -7 10 -4 6 3 10 8 10 11 0 2 -4 4 -10 4 -5 0 -10
-5 -10 -11z"/>
</g>
</svg>
